<svg version="1.1" xmlns="http://www.w3.org/2000/svg" viewBox="0 0 465 465">

<!-- background color #C3B1D6  -->
<path
  fill="#55555B"
  d="
    M  440  , 128
    l -51   , -29.5
    l -44.9 , -39.4
    l -44.1 , -12
    l -75.8 , -43.7
    l -24.9 ,  14.4
    l -32.6 ,  33.3
    l -37.5 ,   7.2
    l -41.6 ,  14.6
    l -24.6 ,  23.6
    l   0   ,   0
    l -37.1 ,  21.4
    v 229
    l  29.8 ,  17.2
    l  25.1 ,  -8.2
    c   3.2 ,   4.5 , 6.4 , 8.9 ,  9.6 , 13.4
    c   3.7 ,   1.5 , 7.3 , 3   , 11   ,  4.5
    l   2.9 ,  18.4
    l  33.9 ,  33.5
    l  43.4 ,  11.1
    v   0
    l  42.7 ,  24.6
    l  75.6 , -43.7
    l   6.5 , -29.2
    l  38.5 , -13.8
    l  20.7 ,   5
    l  57   , -32.9
    l   3.3 , -41.6
    l  -8.5 ,  -8.3
    l   5.5 , -53
    l  -5.5 , -43.3
    l  18.7 , -22.4
    l   3.9 , -50.2
    z"/>

</svg>
